Coordinates
version=1
nRows=14
nColumns=24
inDegrees=yes

Units are S.I. units (second, meters, Newtons, ...)
Angles are in degrees.

endheader
time	pelvis_tilt	pelvis_list	pelvis_rotation	pelvis_tx	pelvis_ty	pelvis_tz	hip_flexion_r	hip_adduction_r	hip_rotation_r	knee_angle_r	ankle_angle_r	subtalar_angle_r	mtp_angle_r	hip_flexion_l	hip_adduction_l	hip_rotation_l	knee_angle_l	ankle_angle_l	subtalar_angle_l	mtp_angle_l	lumbar_extension	lumbar_bending	lumbar_rotation
      2.99500000	     -4.58453142	     -7.51469014	     13.72495856	     -1.92327328	     -0.05254801	      0.46192334	     33.83554968	      2.76848247	     -5.47583287	    -13.47470982	     -1.02428841	      8.86483512	      1.84751116	    -12.52054878	     -7.79492883	      7.70409675	    -20.83981160	      8.93559933	     35.09553891	     16.86904174	      4.48887324	      6.23408284	    -17.15005744
      3.00000000	     -4.59938535	     -7.81394505	     13.87788526	     -1.91396868	     -0.05392981	      0.46239937	     34.01585958	      3.02381664	     -5.96943379	    -14.23280310	     -1.79170956	      8.86034725	      2.81610624	    -12.35616572	     -8.40054397	      7.04626894	    -21.84119809	      8.03417654	     36.13086963	     17.63672980	      4.71165436	      6.51830069	    -17.16456692
      3.00500000	     -4.60993053	     -8.09552705	     13.97751039	     -1.90458492	     -0.05521336	      0.46284908	     34.16863707	      3.30287962	     -6.32518192	    -14.95525163	     -3.03338439	      8.50561499	      4.68737547	    -12.20694982	     -8.95629802	      6.48443180	    -22.78752780	      6.76371672	     36.86546849	     18.78335048	      4.93402938	      6.80829930	    -17.03194388
      3.01000000	     -4.69025193	     -8.46711413	     14.14073451	     -1.89515547	     -0.05653663	      0.46330060	     34.45210734	      3.61590748	     -6.79563119	    -15.91421703	     -3.71741466	      8.50208018	      4.95041766	    -11.82277275	     -9.64215468	      5.82188651	    -23.99699535	      5.72336114	     37.83756242	     19.17848038	      5.27720346	      7.15593617	    -17.05705152
      3.01500000	     -4.78705978	     -8.81967420	     14.26228672	     -1.88582357	     -0.05781836	      0.46386805	     34.76864782	      3.95360840	     -7.07654735	    -16.91806933	     -4.56441346	      8.25992955	      5.34356768	    -11.34532805	    -10.32511288	      5.05936243	    -25.28780847	      4.48552985	     38.86066618	     19.81350252	      5.60594544	      7.48165521	    -17.01531619
      3.02000000	     -4.90339326	     -9.20367185	     14.35664664	     -1.87649895	     -0.05902220	      0.46447054	     35.10885043	      4.35445806	     -7.23606107	    -17.92991985	     -5.52732074	      7.79542682	      5.74213739	    -10.78550608	    -11.02910702	      4.36254500	    -26.62657031	      3.01201143	     39.69681835	     20.58984661	      5.95906191	      7.83573323	    -16.96227086
      3.02500000	     -4.98042824	     -9.48282050	     14.40154766	     -1.86732124	     -0.06001566	      0.46514963	     35.38633013	      4.74513134	     -7.07294057	    -18.92700984	     -6.75680710	      6.86716039	      6.48251849	    -10.27524439	    -11.60351190	      3.78605008	    -27.86213545	      0.98565919	     40.25326259	     22.07505805	      6.20414168	      8.10265502	    -16.85202590
      3.03000000	     -5.10032920	     -9.91108790	     14.51561745	     -1.85814376	     -0.06108787	      0.46573904	     35.77249005	      5.19490407	     -7.21802055	    -20.04911373	     -7.45686722	      6.41730699	      6.53673855	     -9.52438443	    -12.37158879	      3.15852752	    -29.39729078	     -0.75866285	     40.89184184	     22.68767874	      6.55552033	      8.50288940	    -16.82802513
      3.03500000	     -5.22556377	    -10.30725428	     14.52730489	     -1.84895596	     -0.06200559	      0.46637522	     36.14495316	      5.71980550	     -7.07244249	    -21.16635964	     -8.19916093	      5.61902679	      6.39441507	     -8.80384816	    -13.05100786	      2.63659221	    -30.80304492	     -3.02142308	     41.13562437	     23.80953196	      6.89454161	      8.89810692	    -16.66888836
      3.04000000	     -5.38226833	    -10.78961550	     14.61223044	     -1.83986083	     -0.06295593	      0.46698486	     36.58237872	      6.26835493	     -7.11211599	    -22.31523603	     -8.67557586	      4.94491779	      6.09916771	     -7.88141636	    -13.85142937	      2.18280377	    -32.42370770	     -5.13392869	     41.43776094	     24.33023552	      7.29498861	      9.34961345	    -16.63181572
      3.04500000	     -5.49834259	    -11.21204794	     14.58056541	     -1.83080691	     -0.06373782	      0.46762752	     36.95848309	      6.86695200	     -6.96664554	    -23.48795375	     -8.95429075	      4.24352281	      5.48503728	     -7.05164401	    -14.53833366	      1.78368162	    -33.90704345	     -7.74405925	     41.34642125	     25.39461026	      7.60438285	      9.78357166	    -16.42119985
      3.05000000	     -5.65123904	    -11.70832529	     14.65728325	     -1.82181629	     -0.06450828	      0.46817190	     37.35732870	      7.47136753	     -6.93739575	    -24.58923994	     -9.13161408	      3.42286364	      5.00497650	     -6.01817555	    -15.30165582	      1.58823756	    -35.57875253	    -10.17985526	     41.17791098	     25.67056081	      8.00227567	     10.25118041	    -16.40665392
      3.05500000	     -5.79529617	    -12.16288820	     14.62558546	     -1.81297239	     -0.06521783	      0.46878688	     37.74227131	      8.10653717	     -6.84088932	    -25.71532477	     -9.08194202	      2.73091312	      4.28796856	     -4.99339848	    -15.98907863	      1.36644010	    -37.21401048	    -12.87666020	     40.77506520	     26.25565475	      8.32634726	     10.70711260	    -16.24083923
      3.06000000	     -5.90903347	    -12.64589178	     14.59773410	     -1.80402365	     -0.06581590	      0.46926893	     38.03909545	      8.77740290	     -6.78988733	    -26.76413302	     -8.74642058	      2.14216749	      3.50947090	     -3.97816578	    -16.67034058	      1.29302697	    -38.82370855	    -15.66651057	     40.16939774	     26.66598258	      8.66579613	     11.20743113	    -16.06083818
